<?xml version="1.0" encoding="UTF-8" standalone="no"?>
<!-- Created with Inkscape (http://www.inkscape.org/) -->

<svg
   xmlns:dc="http://purl.org/dc/elements/1.1/"
   xmlns:cc="http://creativecommons.org/ns#"
   xmlns:rdf="http://www.w3.org/1999/02/22-rdf-syntax-ns#"
   xmlns:svg="http://www.w3.org/2000/svg"
   xmlns="http://www.w3.org/2000/svg"
   xmlns:sodipodi="http://sodipodi.sourceforge.net/DTD/sodipodi-0.dtd"
   xmlns:inkscape="http://www.inkscape.org/namespaces/inkscape"
   id="svg2921"
   version="1.1"
   inkscape:version="0.47 r22583"
   width="1271"
   height="445"
   xml:space="preserve"
   sodipodi:docname="antennae.svg"><metadata
     id="metadata2927"><rdf:RDF><cc:Work
         rdf:about=""><dc:format>image/svg+xml</dc:format><dc:type
           rdf:resource="http://purl.org/dc/dcmitype/StillImage" /><dc:title></dc:title></cc:Work></rdf:RDF></metadata><defs
     id="defs2925"><inkscape:path-effect
       effect="skeletal"
       id="path-effect3945"
       is_visible="true"
       pattern="M 13.753628,2.41258 C 9.263003,-0.95963247 0.75650305,1.1933175 0.75650305,5.4991925 c 0,6.4588505 12.27024995,6.3407875 14.46087495,3.014125 M 6.711003,2.35863 128.325,5.535605 6.483628,8.7481175 C 2.689253,6.61828 3.957878,4.488455 6.711003,2.35863 z"
       copytype="single_stretched"
       prop_scale="1"
       scale_y_rel="false"
       spacing="0"
       normal_offset="0"
       tang_offset="0"
       prop_units="false"
       vertical_pattern="false"
       fuse_tolerance="0" /><inkscape:path-effect
       effect="skeletal"
       id="path-effect3936"
       is_visible="true"
       pattern="M 13.753628,2.41258 C 9.263003,-0.95963247 0.75650305,1.1933175 0.75650305,5.4991925 c 0,6.4588505 12.27024995,6.3407875 14.46087495,3.014125 M 6.711003,2.35863 128.325,5.535605 6.483628,8.7481175 C 2.689253,6.61828 3.957878,4.488455 6.711003,2.35863 z"
       copytype="single_stretched"
       prop_scale="1"
       scale_y_rel="false"
       spacing="0"
       normal_offset="0"
       tang_offset="0"
       prop_units="false"
       vertical_pattern="false"
       fuse_tolerance="0" /><inkscape:path-effect
       effect="skeletal"
       id="path-effect3927"
       is_visible="true"
       pattern="M 13.753628,2.41258 C 9.263003,-0.95963247 0.75650305,1.1933175 0.75650305,5.4991925 c 0,6.4588505 12.27024995,6.3407875 14.46087495,3.014125 M 6.711003,2.35863 128.325,5.535605 6.483628,8.7481175 C 2.689253,6.61828 3.957878,4.488455 6.711003,2.35863 z"
       copytype="single_stretched"
       prop_scale="1"
       scale_y_rel="false"
       spacing="0"
       normal_offset="0"
       tang_offset="0"
       prop_units="false"
       vertical_pattern="false"
       fuse_tolerance="0" /><inkscape:path-effect
       effect="skeletal"
       id="path-effect3918"
       is_visible="true"
       pattern="M 13.753628,2.41258 C 9.263003,-0.95963247 0.75650305,1.1933175 0.75650305,5.4991925 c 0,6.4588505 12.27024995,6.3407875 14.46087495,3.014125 M 6.711003,2.35863 128.325,5.535605 6.483628,8.7481175 C 2.689253,6.61828 3.957878,4.488455 6.711003,2.35863 z"
       copytype="single_stretched"
       prop_scale="1"
       scale_y_rel="false"
       spacing="0"
       normal_offset="0"
       tang_offset="0"
       prop_units="false"
       vertical_pattern="false"
       fuse_tolerance="0" /><inkscape:path-effect
       effect="skeletal"
       id="path-effect3909"
       is_visible="true"
       pattern="M 13.753628,2.41258 C 9.263003,-0.95963247 0.75650305,1.1933175 0.75650305,5.4991925 c 0,6.4588505 12.27024995,6.3407875 14.46087495,3.014125 M 6.711003,2.35863 128.325,5.535605 6.483628,8.7481175 C 2.689253,6.61828 3.957878,4.488455 6.711003,2.35863 z"
       copytype="single_stretched"
       prop_scale="1"
       scale_y_rel="false"
       spacing="0"
       normal_offset="0"
       tang_offset="0"
       prop_units="false"
       vertical_pattern="false"
       fuse_tolerance="0" /><inkscape:path-effect
       effect="skeletal"
       id="path-effect3900"
       is_visible="true"
       pattern="M 13.753628,2.41258 C 9.263003,-0.95963247 0.75650305,1.1933175 0.75650305,5.4991925 c 0,6.4588505 12.27024995,6.3407875 14.46087495,3.014125 M 6.711003,2.35863 128.325,5.535605 6.483628,8.7481175 C 2.689253,6.61828 3.957878,4.488455 6.711003,2.35863 z"
       copytype="single_stretched"
       prop_scale="1"
       scale_y_rel="false"
       spacing="0"
       normal_offset="0"
       tang_offset="0"
       prop_units="false"
       vertical_pattern="false"
       fuse_tolerance="0" /><inkscape:path-effect
       effect="skeletal"
       id="path-effect3891"
       is_visible="true"
       pattern="M 13.753628,2.41258 C 9.263003,-0.95963247 0.75650305,1.1933175 0.75650305,5.4991925 c 0,6.4588505 12.27024995,6.3407875 14.46087495,3.014125 M 6.711003,2.35863 128.325,5.535605 6.483628,8.7481175 C 2.689253,6.61828 3.957878,4.488455 6.711003,2.35863 z"
       copytype="single_stretched"
       prop_scale="1"
       scale_y_rel="false"
       spacing="0"
       normal_offset="0"
       tang_offset="0"
       prop_units="false"
       vertical_pattern="false"
       fuse_tolerance="0" /><inkscape:path-effect
       effect="skeletal"
       id="path-effect3882"
       is_visible="true"
       pattern="M 19.861946,7.5811569 C 15.371321,4.2089444 6.8648212,6.3618944 6.8648212,10.667769 c 0,6.458851 12.2702498,6.340788 14.4608748,3.014125 M 12.819321,7.5272069 134.43331,10.704182 12.591946,13.916694 C 8.7975712,11.786857 10.066196,9.6570319 12.819321,7.5272069 z"
       copytype="single_stretched"
       prop_scale="1"
       scale_y_rel="false"
       spacing="0"
       normal_offset="0"
       tang_offset="0"
       prop_units="false"
       vertical_pattern="false"
       fuse_tolerance="0" /><inkscape:path-effect
       effect="skeletal"
       id="path-effect3873"
       is_visible="true"
       pattern="M 17.042722,5.2318038 C 12.552097,1.8595913 4.0455974,4.0125413 4.0455974,8.3184163 c 0,6.4588507 12.2702496,6.3407877 14.4608746,3.0141247 M 10.000097,5.1778538 131.61409,8.3548288 9.7727224,11.567341 C 5.9783474,9.4375038 7.2469724,7.3076788 10.000097,5.1778538 z"
       copytype="single_stretched"
       prop_scale="1"
       scale_y_rel="false"
       spacing="0"
       normal_offset="0"
       tang_offset="0"
       prop_units="false"
       vertical_pattern="false"
       fuse_tolerance="0" /><inkscape:path-effect
       effect="skeletal"
       id="path-effect3864"
       is_visible="true"
       pattern="M 17.042722,5.2318038 C 12.552097,1.8595913 4.0455974,4.0125413 4.0455974,8.3184163 c 0,6.4588507 12.2702496,6.3407877 14.4608746,3.0141247 M 10.000097,5.1778538 131.61409,8.3548288 9.7727224,11.567341 C 5.9783474,9.4375038 7.2469724,7.3076788 10.000097,5.1778538 z"
       copytype="single_stretched"
       prop_scale="1"
       scale_y_rel="false"
       spacing="0"
       normal_offset="0"
       tang_offset="0"
       prop_units="false"
       vertical_pattern="false"
       fuse_tolerance="0" /><inkscape:path-effect
       effect="skeletal"
       id="path-effect3855"
       is_visible="true"
       pattern="M 17.042722,5.2318038 C 12.552097,1.8595913 4.0455974,4.0125413 4.0455974,8.3184163 c 0,6.4588507 12.2702496,6.3407877 14.4608746,3.0141247 M 10.000097,5.1778538 131.61409,8.3548288 9.7727224,11.567341 C 5.9783474,9.4375038 7.2469724,7.3076788 10.000097,5.1778538 z"
       copytype="single_stretched"
       prop_scale="1"
       scale_y_rel="false"
       spacing="0"
       normal_offset="0"
       tang_offset="0"
       prop_units="false"
       vertical_pattern="false"
       fuse_tolerance="0" /><inkscape:path-effect
       effect="skeletal"
       id="path-effect3846"
       is_visible="true"
       pattern="M 17.042722,5.2318038 C 12.552097,1.8595913 4.0455974,4.0125413 4.0455974,8.3184163 c 0,6.4588507 12.2702496,6.3407877 14.4608746,3.0141247 M 10.000097,5.1778538 131.61409,8.3548288 9.7727224,11.567341 C 5.9783474,9.4375038 7.2469724,7.3076788 10.000097,5.1778538 z"
       copytype="single_stretched"
       prop_scale="1"
       scale_y_rel="false"
       spacing="0"
       normal_offset="0"
       tang_offset="0"
       prop_units="false"
       vertical_pattern="false"
       fuse_tolerance="0" /><inkscape:path-effect
       effect="skeletal"
       id="path-effect3837"
       is_visible="true"
       pattern="M 17.042722,5.2318038 C 12.552097,1.8595913 4.0455974,4.0125413 4.0455974,8.3184163 c 0,6.4588507 12.2702496,6.3407877 14.4608746,3.0141247 M 10.000097,5.1778538 131.61409,8.3548288 9.7727224,11.567341 C 5.9783474,9.4375038 7.2469724,7.3076788 10.000097,5.1778538 z"
       copytype="single_stretched"
       prop_scale="1"
       scale_y_rel="false"
       spacing="0"
       normal_offset="0"
       tang_offset="0"
       prop_units="false"
       vertical_pattern="false"
       fuse_tolerance="0" /><inkscape:path-effect
       effect="skeletal"
       id="path-effect3828"
       is_visible="true"
       pattern="M 17.042722,5.2318038 C 12.552097,1.8595913 4.0455974,4.0125413 4.0455974,8.3184163 c 0,6.4588507 12.2702496,6.3407877 14.4608746,3.0141247 M 10.000097,5.1778538 131.61409,8.3548288 9.7727224,11.567341 C 5.9783474,9.4375038 7.2469724,7.3076788 10.000097,5.1778538 z"
       copytype="single_stretched"
       prop_scale="1"
       scale_y_rel="false"
       spacing="0"
       normal_offset="0"
       tang_offset="0"
       prop_units="false"
       vertical_pattern="false"
       fuse_tolerance="0" /><inkscape:path-effect
       effect="skeletal"
       id="path-effect3819"
       is_visible="true"
       pattern="M 17.042722,5.2318038 C 12.552097,1.8595913 4.0455974,4.0125413 4.0455974,8.3184163 c 0,6.4588507 12.2702496,6.3407877 14.4608746,3.0141247 M 10.000097,5.1778538 131.61409,8.3548288 9.7727224,11.567341 C 5.9783474,9.4375038 7.2469724,7.3076788 10.000097,5.1778538 z"
       copytype="single_stretched"
       prop_scale="1"
       scale_y_rel="false"
       spacing="0"
       normal_offset="0"
       tang_offset="0"
       prop_units="false"
       vertical_pattern="false"
       fuse_tolerance="0" /><inkscape:path-effect
       effect="skeletal"
       id="path-effect3810"
       is_visible="true"
       pattern="M 17.042722,5.2318038 C 12.552097,1.8595913 4.0455974,4.0125413 4.0455974,8.3184163 c 0,6.4588507 12.2702496,6.3407877 14.4608746,3.0141247 M 10.000097,5.1778538 131.61409,8.3548288 9.7727224,11.567341 C 5.9783474,9.4375038 7.2469724,7.3076788 10.000097,5.1778538 z"
       copytype="single_stretched"
       prop_scale="1"
       scale_y_rel="false"
       spacing="0"
       normal_offset="0"
       tang_offset="0"
       prop_units="false"
       vertical_pattern="false"
       fuse_tolerance="0" /><inkscape:path-effect
       effect="skeletal"
       id="path-effect3779"
       is_visible="true"
       pattern="M 17.042722,5.2318038 C 12.552097,1.8595913 4.0455974,4.0125413 4.0455974,8.3184163 c 0,6.4588507 12.2702496,6.3407877 14.4608746,3.0141247 M 10.000097,5.1778538 131.61409,8.3548288 9.7727224,11.567341 C 5.9783474,9.4375038 7.2469724,7.3076788 10.000097,5.1778538 z"
       copytype="single_stretched"
       prop_scale="1"
       scale_y_rel="false"
       spacing="0"
       normal_offset="0"
       tang_offset="0"
       prop_units="false"
       vertical_pattern="false"
       fuse_tolerance="0" /><inkscape:path-effect
       effect="skeletal"
       id="path-effect3178"
       is_visible="true"
       pattern="M 0,0 1,0"
       copytype="single_stretched"
       prop_scale="1"
       scale_y_rel="false"
       spacing="0"
       normal_offset="0"
       tang_offset="0"
       prop_units="false"
       vertical_pattern="false"
       fuse_tolerance="0" /><inkscape:path-effect
       effect="skeletal"
       id="path-effect3113"
       is_visible="true"
       pattern="M 18.452334,8.5208982 C 13.961709,5.1486857 5.4552093,7.3016357 5.4552093,11.607511 c 0,6.45885 12.2702497,6.340787 14.4608747,3.014125 M 11.409709,8.4669482 133.02371,11.643923 11.182334,14.856436 C 7.3879593,12.726598 8.6565843,10.596773 11.409709,8.4669482 z"
       copytype="single_stretched"
       prop_scale="1"
       scale_y_rel="false"
       spacing="0"
       normal_offset="0"
       tang_offset="0"
       prop_units="false"
       vertical_pattern="false"
       fuse_tolerance="0" /><inkscape:perspective
       sodipodi:type="inkscape:persp3d"
       inkscape:vp_x="0 : 0.5 : 1"
       inkscape:vp_y="0 : 1000 : 0"
       inkscape:vp_z="1 : 0.5 : 1"
       inkscape:persp3d-origin="0.5 : 0.33333333 : 1"
       id="perspective2929" /></defs><sodipodi:namedview
     pagecolor="#ffffff"
     bordercolor="#666666"
     borderopacity="1"
     objecttolerance="10"
     gridtolerance="10"
     guidetolerance="10"
     inkscape:pageopacity="0"
     inkscape:pageshadow="2"
     inkscape:window-width="1280"
     inkscape:window-height="726"
     id="namedview2923"
     showgrid="false"
     inkscape:zoom="0.85129816"
     inkscape:cx="33.092817"
     inkscape:cy="196.58366"
     inkscape:window-x="0"
     inkscape:window-y="25"
     inkscape:window-maximized="1"
     inkscape:current-layer="g2931"><inkscape:grid
       type="xygrid"
       id="grid3061" /></sodipodi:namedview><g
     id="g2931"
     inkscape:groupmode="layer"
     inkscape:label="antennae"
     transform="matrix(1.25,0,0,-1.25,0,445)"><g
       transform="matrix(1,0,0,-1,0,356)"
       id="g2935"><path
         id="path2937"
         style="fill:none;stroke:#000000;stroke-width:4;stroke-linecap:butt;stroke-linejoin:miter;stroke-miterlimit:4;stroke-opacity:1;stroke-dasharray:none"
         d="m 960.234,235.574 c 7.786,-28.664 49.735,-86.172 52.043,-111.543 10.575,-42.707 -12.882,-103.117 -106.91,-121.258 -23.945,-3.046 -42.031,3.434 -63.551,10.286 -24.125,10.429 -25.886,9.054 -22.453,21.527 3.883,16.644 13.922,29.48 18.813,42.883 1.625,13 -6.61,22.812 -12.649,32.035 -8.23,11.078 12.422,11.707 22.285,20.711 23.915,17.183 45.59,25.597 62.528,52.238 11.492,13.828 18.308,31.426 19.101,49.379 l -0.043,2.137" /></g><g
       transform="matrix(1,0,0,-1,0,356)"
       id="g2939"><path
         id="path2941"
         style="fill:none;stroke:#000000;stroke-width:4;stroke-linecap:butt;stroke-linejoin:miter;stroke-miterlimit:4;stroke-opacity:1;stroke-dasharray:none"
         d="m 818.539,34.805 c -1.262,7.324 -4.316,18.113 -12.875,18.109 -11.102,0.52 -12.906,-9.379 -23.164,-11.863 -13.492,-5.203 -35.703,2.187 -49.285,7.734 -18.442,7.645 -52.481,32.977 -35.891,41.488 15.418,10.719 4.762,16.36 10.985,34.516 3.859,18.117 67.316,-13.699 118.781,-19.906" /></g><g
       transform="matrix(1,0,0,-1,0,356)"
       id="g2943"><path
         id="path2945"
         style="fill:none;stroke:#000000;stroke-width:4;stroke-linecap:butt;stroke-linejoin:miter;stroke-miterlimit:4;stroke-opacity:1;stroke-dasharray:none"
         d="m 810.047,52.277 c 11.437,18.098 15.332,43.387 -3.375,57.555" /></g><g
       transform="matrix(1,0,0,-1,0,356)"
       id="g2947"><path
         id="path2949"
         style="fill:none;stroke:#000000;stroke-width:4;stroke-linecap:butt;stroke-linejoin:miter;stroke-miterlimit:4;stroke-opacity:1;stroke-dasharray:none"
         d="m 697.695,90.145 c -34.492,24.406 -58.3,22.152 -92.242,51.066 -20.644,12.414 -4.406,21.516 -0.242,29.894 5.949,14.493 6.258,24.676 20.43,15.129 28.429,-20.273 52.957,-43.515 80.953,-64.41" /></g><g
       transform="matrix(1,0,0,-1,0,356)"
       id="g2951"><path
         id="path2953"
         style="fill:none;stroke:#000000;stroke-width:4;stroke-linecap:butt;stroke-linejoin:miter;stroke-miterlimit:4;stroke-opacity:1;stroke-dasharray:none"
         d="m 597.02,157.672 c -13.153,4.535 -26.114,9.445 -38.446,15.98 -25.304,14.895 -20.203,22 -11.636,38.774 12.48,22.355 17.242,18.117 39.582,1.09 9.613,-7.414 16.785,-17.461 24.691,-26.598" /></g><g
       transform="matrix(1,0,0,-1,0,356)"
       id="g2955"><path
         id="path2957"
         style="fill:none;stroke:#000000;stroke-width:4;stroke-linecap:butt;stroke-linejoin:miter;stroke-miterlimit:4;stroke-opacity:1;stroke-dasharray:none"
         d="m 540.207,196.141 c -8.164,-2.504 -26.086,5.847 -33.527,10.242 -8.442,4.961 -5.953,16.594 -0.008,31.09 10.976,24.402 12.773,26.89 30.664,13.031 9.035,-7.316 18.496,-11.727 20.93,-23.688" /></g><g
       transform="matrix(1,0,0,-1,0,356)"
       id="g2959"><path
         id="path2961"
         style="fill:none;stroke:#000000;stroke-width:4;stroke-linecap:butt;stroke-linejoin:miter;stroke-miterlimit:4;stroke-opacity:1;stroke-dasharray:none"
         d="m 501.719,217.055 c -13.778,6.582 -29.461,-1.215 -43.692,2.09 -9.988,3.234 -0.871,17.742 0.664,32.011 0.735,24.352 4.317,24.75 14.278,23.532 15.59,-3.911 30.027,-11.036 43.277,-20.157" /></g><g
       transform="matrix(1,0,0,-1,0,356)"
       id="g2963"><path
         id="path2965"
         style="fill:none;stroke:#000000;stroke-width:4;stroke-linecap:butt;stroke-linejoin:miter;stroke-miterlimit:4;stroke-opacity:1;stroke-dasharray:none"
         d="m 462.379,272.973 c -6.207,3.808 -9.441,9.437 -16.551,15.304 -13.008,10.145 -16.629,14.578 -33.691,22.664 -11.918,6.297 -5.621,-5.296 -3.813,-12.535 3.602,-10.879 4.906,-33.558 3.235,-44.933 0.218,-21.825 -17.282,-54.094 -1.25,-43.352 8.121,3.649 27.816,15.938 42.726,14.676" /></g><g
       transform="matrix(1,0,0,-1,0,356)"
       id="g2967"><path
         id="path2969"
         style="fill:none;stroke:#000000;stroke-width:4;stroke-linecap:butt;stroke-linejoin:miter;stroke-miterlimit:4;stroke-opacity:1;stroke-dasharray:none"
         d="m 406.785,300.973 c -5.933,2.996 -15.383,5.136 -21.457,4.961 -8.226,4.878 -51.144,29.222 -56.73,16.824 -1.418,-3.094 6.714,-10.028 12.394,-18.903 11.957,-24.585 14.703,-46.644 18.094,-73.113 1.664,-13 0.664,-19.816 5.598,-21.859 3.32,-1.375 20.589,12.75 27.652,25.621 7.801,-0.106 6.144,-4.352 14.168,-5.832" /></g><g
       transform="matrix(1,0,0,-1,0,356)"
       id="g2971"><path
         id="path2973"
         style="fill:none;stroke:#000000;stroke-width:4;stroke-linecap:butt;stroke-linejoin:miter;stroke-miterlimit:4;stroke-opacity:1;stroke-dasharray:none"
         d="m 359.574,220.629 c -5.703,4.113 -11.543,6.301 -14.062,1.562 4.437,-10.011 10.699,-25.402 7.082,-32.457 -15.61,-26.992 -28.399,-47.437 -54.598,-66.191 -8.625,-4.535 -20.019,14.781 -25.625,28.324 -27.101,47.391 -49.605,102.938 -59.223,156.688 -3.742,16.582 -7.519,26.949 -7.488,31.777 0.481,10.629 14.125,13.395 22.813,12.988 19.812,1.145 52.175,-4.57 63.089,-10.707 21.758,-11.215 24.887,-9.226 27.868,-27.379 4.07,-10.347 11.629,-8.675 15.468,-3.41" /></g><g
       transform="matrix(1,0,0,-1,0,356)"
       id="g2975"><path
         id="path2977"
         style="fill:none;stroke:#000000;stroke-width:4;stroke-linecap:butt;stroke-linejoin:miter;stroke-miterlimit:4;stroke-opacity:1;stroke-dasharray:none"
         d="m 345.402,222.484 c -18.394,35.582 -28.425,56.2 -25.523,92.571" /></g><g
       transform="matrix(1,0,0,-1,0,356)"
       id="g2979"><path
         id="path2981"
         style="fill:none;stroke:#000000;stroke-width:4;stroke-linecap:butt;stroke-linejoin:miter;stroke-miterlimit:4;stroke-opacity:1;stroke-dasharray:none"
         d="m 392.645,234.711 c 0.14,24.937 8.957,49.977 -7.758,71.598" /></g><g
       transform="matrix(1,0,0,-1,0,356)"
       id="g2983"><path
         id="path2985"
         style="fill:none;stroke:#000000;stroke-width:4;stroke-linecap:butt;stroke-linejoin:miter;stroke-miterlimit:4;stroke-opacity:1;stroke-dasharray:none"
         d="m 115.66,194.371 c -15.09,29.5 -24.797,76.359 -33.73,108.867 -1.492,8.867 -8.094,17.485 1.617,22.508 9.051,7.371 42.937,19.692 66.777,25.625 13.02,0.957 20.637,-8.234 21.375,-20.766 9.172,-38.304 19.289,-77.679 29.543,-111.003 13.238,-36.004 34.352,-63.793 51.676,-96.43 6.902,-12.586 8.551,-19.324 -0.996,-27.234 -11.813,-9.5 -41.484,-28.118 -58.984,-30.52 -5.946,-0.816 -10.833,3.867 -12.672,6.516 -4.7,6.785 -46.809,79.679 -64.606,122.437 z" /></g><g
       transform="matrix(1,0,0,-1,0,356)"
       id="g2987"><path
         id="path2989"
         style="fill:none;stroke:#000000;stroke-width:4;stroke-linecap:butt;stroke-linejoin:miter;stroke-miterlimit:4;stroke-opacity:1;stroke-dasharray:none"
         d="m 69.895,309.809 c 8.808,-41.442 17.082,-73.454 31.832,-109.149 21.339,-47.305 59.105,-108.203 67.16,-125.539 7.238,-12.195 -16.352,-11.508 -24.848,-11.769 -14.922,-0.368 -37.695,9.789 -52.57,24.035 -39.813,22.742 -70.157,54.754 -80.586,83.148 -3.531,10.172 -22.063,74.711 8,107.43 2.945,5.453 3.664,16.047 12.16,22.957 21.602,15.84 34.613,27.945 38.852,8.887 z" /></g><g
       transform="matrix(1,0,0,-1,0,356)"
       id="g2991"><path
         id="path2993"
         style="fill:none;stroke:#000000;stroke-width:4;stroke-linecap:butt;stroke-linejoin:miter;stroke-miterlimit:4;stroke-opacity:1;stroke-dasharray:none"
         d="M 19.09,278.375 C 18.746,233.645 45.738,177.547 46.961,173.078 51.32,161.871 80.93,97.895 92.371,86.801" /></g><g
       transform="matrix(1,0,0,-1,0,356)"
       id="g2995"><path
         id="path2997"
         style="fill:none;stroke:#000000;stroke-width:4;stroke-linecap:butt;stroke-linejoin:miter;stroke-miterlimit:4;stroke-opacity:1;stroke-dasharray:none"
         d="m 193.129,248.488 c 11.816,-3.25 25.648,2.305 31.769,10.922" /></g><g
       transform="matrix(1,0,0,-1,0,356)"
       id="g2999"><path
         id="path3001"
         style="fill:none;stroke:#000000;stroke-width:4;stroke-linecap:butt;stroke-linejoin:miter;stroke-miterlimit:4;stroke-opacity:1;stroke-dasharray:none"
         d="m 233.676,156.566 c 7.211,13.993 13.117,12.161 27.48,15.746" /></g><g
       transform="matrix(1,0,0,-1,0,356)"
       id="g3003"><path
         id="path3005"
         style="fill:none;stroke:#000000;stroke-width:4;stroke-linecap:butt;stroke-linejoin:miter;stroke-miterlimit:4;stroke-opacity:1;stroke-dasharray:none"
         d="m 161.062,349.383 c 39.204,-30.156 45.973,-69.254 57.344,-95.66" /></g><g
       transform="matrix(1,0,0,-1,0,356)"
       id="g3007"><path
         id="path3009"
         style="fill:none;stroke:#000000;stroke-width:4;stroke-linecap:butt;stroke-linejoin:miter;stroke-miterlimit:4;stroke-opacity:1;stroke-dasharray:none"
         d="m 258.594,108.57 c 1.59,23.981 -3.047,54.688 -7.961,61.16" /></g><g
       transform="matrix(1,0,0,-1,0,356)"
       id="g3011"><path
         id="path3013"
         style="fill:none;stroke:#000000;stroke-width:4;stroke-linecap:butt;stroke-linejoin:miter;stroke-miterlimit:4;stroke-opacity:1;stroke-dasharray:none"
         d="m 66.73,317.477 c 7.528,-3.422 11.637,-9.997 15.403,-15.993" /></g><g
       transform="matrix(1,0,0,-1,0,356)"
       id="g3015"><path
         id="path3017"
         style="fill:none;stroke:#000000;stroke-width:4;stroke-linecap:butt;stroke-linejoin:miter;stroke-miterlimit:4;stroke-opacity:1;stroke-dasharray:none"
         d="m 170.219,70.102 c 1.476,1.871 2.047,11.683 -0.344,19.007" /></g><path
       id="path3090"
       style="color:#000000;fill:none;stroke:#000000;stroke-width:1.21040487;stroke-linecap:butt;stroke-linejoin:miter;stroke-miterlimit:4;stroke-opacity:1;stroke-dasharray:none;stroke-dashoffset:0;marker:none;visibility:visible;display:inline;overflow:visible;enable-background:accumulate"
       d="m 1218.4896,289.69305 c -3.5925,2.69777 -10.3977,0.97541 -10.3977,-2.46929 0,-5.16708 9.8162,-5.07263 11.5687,-2.4113 m -6.8051,4.92375 97.2912,-2.54158 -97.4731,-2.57001 c -3.0355,1.70387 -2.0206,3.40773 0.1819,5.11159 z" /><path
       style="color:#000000;fill:#ffffff;stroke:#000000;stroke-width:1.2;stroke-linecap:butt;stroke-linejoin:miter;stroke-miterlimit:4;stroke-opacity:1;stroke-dasharray:none;stroke-dashoffset:0;marker:none;visibility:visible;display:inline;overflow:visible;enable-background:accumulate;fill-opacity:1"
       d="m 202.11178,277.26225 c 1.11034,-1.87608 0.62735,-3.92771 -0.64414,-5.20568 -1.2715,-1.27797 -3.2978,-1.75555 -5.2399,-0.82635 -1.45657,0.69691 -2.34866,1.61764 -2.83624,2.5795 -0.48758,0.96186 -0.57071,1.96962 -0.37811,2.89273 0.1926,0.9231 0.66185,1.7645 1.30322,2.38847 0.64138,0.62397 1.45686,1.03209 2.34514,1.04949 m 3.90782,-6.92755 c 2.2366,5.94096 3.78275,12.11535 4.57087,18.36314 0.84305,6.35751 0.94954,13.12576 -1.06287,19.44533 0,0 0,0 0,0 -0.78199,2.47729 -2.01974,4.91101 -3.87531,6.88533 -1.76391,1.84834 -4.06502,3.09007 -6.51188,3.55705 -3.03767,0.55284 -6.05571,0.0721 -8.81446,-0.81314 -4.04728,-1.28658 -7.7237,-3.36157 -11.18113,-5.65906 3.64723,1.98233 7.47068,3.70883 11.46855,4.59347 2.72194,0.59863 5.55705,0.80373 8.10906,0.0711 0,0 0,0 0,0 2.0173,-0.56743 3.82428,-1.77929 5.08721,-3.37067 1.38914,-1.72307 2.21152,-3.87455 2.7326,-6.09561 0,-10e-6 0,-10e-6 0,-10e-6 1.34539,-5.77414 0.61049,-11.86882 -0.64515,-17.817 -1.26536,-5.82098 -3.23803,-11.45958 -5.80843,-16.77601 0.55564,-1.40992 1.36508,-2.19096 2.38224,-2.52558 1.01715,-0.33461 2.23684,-0.22059 3.5487,0.1417 z"
       id="path3092"
       inkscape:path-effect="#path-effect3113"
       inkscape:original-d="m 195.99514,271.34151 c 12.45897,26.04006 11.95863,64.02394 -22.1861,43.4603"
       sodipodi:nodetypes="cc" /><path
       style="color:#000000;fill:#ffffff;stroke:#000000;stroke-width:1.50000000000000000;stroke-linecap:butt;stroke-linejoin:miter;stroke-miterlimit:4;stroke-opacity:1;stroke-dasharray:none;stroke-dashoffset:0;marker:none;visibility:visible;display:inline;overflow:visible;enable-background:accumulate;fill-opacity:1"
       d="m 202.39736,141.31227 c -1.09083,1.87206 -0.61858,3.87931 0.64255,5.15554 1.26112,1.27623 3.28361,1.77768 5.23184,0.86142 1.46118,-0.6872 2.35852,-1.60283 2.8493,-2.56474 0.49077,-0.96192 0.57493,-1.97662 0.37817,-2.91416 -0.39352,-1.87509 -1.91964,-3.48432 -3.70008,-3.50014 m -3.85657,6.96817 c -2.09951,-5.63198 -3.6601,-11.31266 -5.26888,-16.87262 -1.92185,-6.5772 -3.7443,-13.06579 -6.61545,-19.06051 0,0 0,0 0,0 -1.19669,-2.49018 -2.54568,-4.87241 -4.28825,-6.90995 -1.49871,-1.74388 -3.28771,-3.252175 -5.3734,-4.096841 -2.15862,-0.90097 -4.66783,-1.053899 -7.09409,-0.647642 -3.34248,0.559737 -6.54586,2.069439 -9.55128,3.861233 2.83441,-2.051414 5.91296,-3.862347 9.35325,-4.772619 2.51897,-0.665967 5.25319,-0.751656 7.83339,0.03848 0,0 0,10e-7 0,10e-7 2.46356,0.768226 4.66152,2.26294 6.48828,4.069204 2.11138,2.08017 3.8207,4.52193 5.29908,7.03371 0,0 0,0 0,0 3.55145,6.01941 6.06134,12.56029 8.53227,18.93154 2.13699,5.48182 4.1645,10.94429 6.61735,16.06311 -0.55461,1.41778 -1.36902,2.19286 -2.38738,2.52113 -1.01836,0.32826 -2.23673,0.20482 -3.54489,-0.15823 z"
       id="path3741"
       transform="matrix(0.8,0,0,-0.8,0,356)"
       inkscape:path-effect="#path-effect3945"
       inkscape:original-d="M 208.50509,147.21949 C 197.54095,123.90661 193.96325,82.743166 165.6294,101.4071"
       sodipodi:nodetypes="cc" /><path
       style="color:#000000;fill:#ffffff;stroke:#000000;stroke-width:1.50000000000000000;stroke-linecap:butt;stroke-linejoin:miter;stroke-miterlimit:4;stroke-opacity:1;stroke-dasharray:none;stroke-dashoffset:0;marker:none;visibility:visible;display:inline;overflow:visible;enable-background:accumulate;fill-opacity:1"
       d="m 176.58755,189.0793 c -0.88539,1.80621 -0.37546,3.29438 0.82972,4.11182 1.20518,0.81745 3.11832,0.97628 5.01748,-0.0378 2.84875,-1.52111 3.50422,-3.66491 2.96699,-5.35418 -0.53723,-1.68928 -2.24852,-2.87466 -3.96212,-2.49249 m -3.17388,6.77488 c -3.21342,-6.50451 -6.96402,-12.75881 -11.34374,-18.5802 -3.78458,-5.01615 -7.94836,-9.7446 -12.86451,-13.61315 -1.76554,-1.38757 -3.60443,-2.65901 -5.5921,-3.63535 0,0 0,0 0,0 -1.4525,-0.70264 -2.94529,-1.29069 -4.48726,-1.38453 -1.08712,-0.058 -2.23053,0.14056 -3.02379,0.83444 -0.90255,0.73838 -1.35085,2.00939 -1.53451,3.28209 0.0463,-1.28427 0.3482,-2.62713 1.24909,-3.58129 0.82248,-0.8728 2.08169,-1.28081 3.31743,-1.32668 1.70351,-0.0675 3.40477,0.37594 4.99574,0.96612 2.19825,0.80877 4.27586,1.93332 6.2497,3.18011 5.49665,3.46887 10.36727,7.91423 14.79153,12.67683 0,0 0,0 0,0 5.18015,5.56636 9.79297,11.6852 13.87043,18.15127 -0.90735,2.73711 -3.11183,3.1585 -5.62801,3.03034 z"
       id="path3745"
       transform="matrix(0.8,0,0,-0.8,0,356)"
       inkscape:path-effect="#path-effect3936"
       inkscape:original-d="M 182.66221,193.03188 C 165.14919,160.23336 140.28248,146.11001 139.19917,158.96625"
       sodipodi:nodetypes="cc" /><path
       style="color:#000000;fill:#ffffff;stroke:#000000;stroke-width:1.50000000000000000;stroke-linecap:butt;stroke-linejoin:miter;stroke-miterlimit:4;stroke-opacity:1;stroke-dasharray:none;stroke-dashoffset:0;marker:none;visibility:visible;display:inline;overflow:visible;enable-background:accumulate;fill-opacity:1"
       d="m 153.13336,243.55646 c 0.1565,2.01418 1.47628,3.07098 2.98639,3.10983 1.51012,0.0388 3.17626,-0.95191 4.11158,-2.89107 0.70149,-1.45437 0.894,-2.6966 0.77243,-3.69921 -0.12156,-1.00261 -0.56026,-1.76885 -1.16243,-2.28704 -1.20435,-1.03637 -3.08779,-1.1003 -4.35646,0.0946 m 0.71262,7.3808 c -4.61514,-2.71097 -8.94171,-5.69361 -13.22271,-8.61009 0,0 0,-1e-5 0,-1e-5 -5.85649,-3.98168 -11.62656,-8.01444 -17.51913,-11.84652 -2.49142,-1.61974 -4.99109,-3.20291 -7.55917,-4.6622 -1.87524,-1.06055 -3.73316,-2.08846 -5.71452,-2.7783 0,0 0,0 0,0 -0.635,-0.21726 -1.25386,-0.40854 -1.87064,-0.44687 0,0 0,0 0,0 -0.39595,-0.004 -0.77561,-0.005 -0.98518,0.185 -0.21964,0.12311 -0.30172,0.48488 -0.32338,0.85177 -0.0131,0.65277 0.20231,1.33122 0.44565,2.00495 -0.31515,-0.64291 -0.60841,-1.29589 -0.6798,-1.99357 -0.0379,-0.40625 0.0162,-0.85245 0.30938,-1.14142 0.30558,-0.30806 0.78673,-0.40617 1.23785,-0.42465 0.69534,-0.0311 1.39487,0.0946 2.07178,0.25214 0,0 0,0 0,0 2.12456,0.49162 4.16321,1.33616 6.15286,2.19926 0,0 0,0 1e-5,0 2.75268,1.19163 5.449,2.5139 8.11841,3.86495 6.31962,3.19805 12.52886,6.60393 18.7463,9.91264 0,1e-5 0,1e-5 0,1e-5 4.62618,2.46009 9.1941,4.93342 13.83006,7.01402 0.60886,2.71246 -0.83528,4.36382 -3.03777,5.61889 z"
       id="path3747"
       transform="matrix(0.8,0,0,-0.8,0,356)"
       inkscape:path-effect="#path-effect3927"
       inkscape:original-d="m 160.34335,243.54297 c -17.1535,-8.27372 -56.95591,-37.13978 -51.09843,-23.49353"
       sodipodi:nodetypes="cc" /><path
       style="color:#000000;fill:#ffffff;stroke:#000000;stroke-width:1.50000000000000000;stroke-linecap:butt;stroke-linejoin:miter;stroke-miterlimit:4;stroke-opacity:1;stroke-dasharray:none;stroke-dashoffset:0;marker:none;visibility:visible;display:inline;overflow:visible;enable-background:accumulate;fill-opacity:1"
       d="m 140.78352,283.25102 c 0.67051,1.97223 2.23152,2.7893 3.80996,2.62755 1.57843,-0.16175 3.19924,-1.29846 3.91713,-3.32818 1.07684,-3.0446 -0.0405,-5.12051 -1.72978,-6.05775 -1.68929,-0.93725 -3.90326,-0.72079 -4.97536,0.69039 m 2.60871,7.28494 c -5.53687,-2.13273 -11.25996,-4.00284 -17.00889,-5.92686 -7.68079,-2.56944 -15.41614,-5.09463 -23.07008,-7.86934 -3.18459,-1.15423 -6.369658,-2.35219 -9.498132,-3.69409 -1e-6,0 -2e-6,0 -3e-6,0 -2.200199,-0.94025 -4.446942,-1.93421 -6.493573,-3.28557 -10e-7,0 -2e-6,0 -3e-6,0 -0.617245,-0.40182 -1.254369,-0.86731 -1.770458,-1.4837 -0.178176,-0.20958 -0.343605,-0.46149 -0.456135,-0.75789 -0.09411,-0.24528 -0.124854,-0.52626 -0.0695,-0.81153 0.06977,-0.29392 0.216904,-0.53537 0.398084,-0.71738 0.235007,-0.23926 0.501115,-0.41 0.764191,-0.54139 0.838097,-0.42342 1.731865,-0.62213 2.602366,-0.78202 -0.851391,0.24113 -1.720218,0.52221 -2.478773,0.99974 -0.236444,0.14834 -0.464335,0.32283 -0.642748,0.54194 -0.133886,0.16388 -0.234819,0.35945 -0.263151,0.56792 -0.02633,0.19955 0.01674,0.39964 0.09862,0.57645 0.102386,0.22109 0.257367,0.41086 0.426979,0.58259 0.502858,0.50856 1.125852,0.87108 1.757999,1.21066 10e-7,1e-5 2e-6,1e-5 3e-6,1e-5 2.090781,1.11848 4.346662,1.86291 6.615525,2.59383 3.200774,1.02766 6.445239,1.90721 9.706539,2.75082 7.83309,2.02559 15.72962,3.79634 23.64099,5.63234 0,0 0,0 0,0 5.92543,1.3727 11.90377,2.71698 17.86795,4.38895 1.35471,2.69254 -0.0416,4.47196 -2.1278,6.02452 z"
       id="path3751"
       transform="matrix(0.8,0,0,-0.8,0,356)"
       inkscape:path-effect="#path-effect3918"
       inkscape:original-d="M 148.59659,282.30729 C 127.64775,274.89793 72.19411,262.97017 89.862758,258.81376"
       sodipodi:nodetypes="cc" /><path
       style="color:#000000;fill:#ffffff;stroke:#000000;stroke-width:1.50000000000000000;stroke-linecap:butt;stroke-linejoin:miter;stroke-miterlimit:4;stroke-opacity:1;stroke-dasharray:none;stroke-dashoffset:0;marker:none;visibility:visible;display:inline;overflow:visible;enable-background:accumulate;fill-opacity:1"
       d="m 131.55068,328.7785 c 2.03614,3.28782 5.52422,0.96267 5.31186,-3.33797 -0.31855,-6.45099 -5.41218,-6.0943 -6.1855,-2.73168 m 3.83897,5.98948 c -6.88686,-0.10267 -13.80315,-0.28415 -20.70716,-0.74931 -5.1502,-0.34232 -10.39549,-0.7995 -15.507259,-1.96716 -10e-7,0 -2e-6,0 -3e-6,0 -2.955403,-0.63773 -6.169692,-1.55966 -8.529372,-3.70251 -0.808093,-0.73919 -1.447746,-1.67226 -1.774097,-2.7145 -0.325223,-1.0698 -0.314766,-2.17922 -0.117088,-3.21957 -0.06969,1.05645 0.05722,2.13629 0.479665,3.08432 0.412251,0.92374 1.0996,1.68558 1.89627,2.25916 2.382757,1.72206 5.399854,2.10711 8.353295,2.43243 1e-6,0 2e-6,0 2e-6,0 5.041807,0.51221 10.114187,0.30502 15.220187,0.0166 0,0 0,0 1e-5,0 6.83539,-0.39338 13.65011,-1.07199 20.48011,-1.82686 1.68426,2.05304 1.26268,4.20521 0.20544,6.38738 z"
       id="path3753"
       transform="matrix(0.8,0,0,-0.8,0,356)"
       inkscape:path-effect="#path-effect3909"
       inkscape:original-d="m 136.84982,325.18299 c -36.15283,1.78522 -49.886455,0.22983 -48.749077,-8.81007"
       sodipodi:nodetypes="cc" /><path
       style="color:#000000;fill:#ffffff;stroke:#000000;stroke-width:1.50000000000000000;stroke-linecap:butt;stroke-linejoin:miter;stroke-miterlimit:4;stroke-opacity:1;stroke-dasharray:none;stroke-dashoffset:0;marker:none;visibility:visible;display:inline;overflow:visible;enable-background:accumulate;fill-opacity:1"
       d="m 119.84764,370.83342 c 1.70705,1.12965 3.40824,0.73532 4.4062,-0.43377 0.99796,-1.16908 1.28691,-3.09563 0.37152,-5.04427 -1.3731,-2.92298 -3.39236,-3.72877 -5.0033,-3.41749 -1.61094,0.31128 -2.8612,1.75406 -2.73765,3.49918 m 6.31133,4.02946 c -7.08334,2.72389 -14.51813,4.82498 -22.1498,5.50492 0,0 0,0 0,0 -5.639553,0.53113 -11.6083,0.18037 -16.928282,-2.10373 -1e-6,0 -2e-6,0 -3e-6,0 -3.757846,-1.60919 -7.050207,-4.44438 -8.722186,-8.13275 -1.536932,-3.47045 -1.520329,-7.37957 -0.430523,-10.82799 -0.726019,3.54276 -0.307234,7.31654 1.435746,10.31742 1.845621,3.20836 5.097,5.36216 8.540282,6.46314 0,0 10e-7,0 10e-7,0 4.974196,1.59101 10.359257,1.24652 15.549285,0.26877 0,0 0,0 0,0 7.05092,-1.3603 13.75538,-4.0954 20.21429,-7.38558 2.55434,1.20168 2.9158,3.3728 2.49119,5.8958 z"
       id="path3755"
       transform="matrix(0.8,0,0,-0.8,0,356)"
       inkscape:path-effect="#path-effect3900"
       inkscape:original-d="M 124.51572,365.12199 C 87.707992,382.41275 71.342054,368.76043 75.1793,353.96256"
       sodipodi:nodetypes="cc" /><path
       style="color:#000000;fill:#ffffff;stroke:#000000;stroke-width:1.50000000000000000;stroke-linecap:butt;stroke-linejoin:miter;stroke-miterlimit:4;stroke-opacity:1;stroke-dasharray:none;stroke-dashoffset:0;marker:none;visibility:visible;display:inline;overflow:visible;enable-background:accumulate;fill-opacity:1"
       d="m 118.44,408.19751 c 2.21703,-0.43093 3.56865,-2.29219 3.76141,-4.21298 0.0964,-0.9604 -0.0896,-1.93191 -0.55043,-2.75985 -0.46086,-0.82794 -1.19492,-1.51133 -2.18431,-1.93547 -1.48409,-0.63621 -2.77599,-0.67469 -3.84059,-0.37676 -1.06459,0.29794 -1.90528,0.93593 -2.50532,1.72379 -0.60004,0.78785 -0.9615,1.72846 -1.04814,2.6554 -0.0866,0.92694 0.10069,1.84415 0.64204,2.559 m 7.99801,-1.74523 c -3.83241,7.03892 -8.98162,13.44684 -15.51992,18.15032 0,0 0,0 0,0 -5.770422,4.1493 -12.700637,6.78198 -19.77513,6.90423 -10e-7,0 -2e-6,0 -4e-6,0 -5.950405,0.10154 -11.943698,-1.73672 -16.449596,-5.49121 -4.507775,-3.79188 -7.113211,-9.40326 -7.517541,-15.05883 0.869715,5.60294 3.904281,10.80081 8.376145,13.94664 4.466772,3.16094 10.109918,4.3089 15.440413,3.79858 6.366542,-0.60737 12.339579,-3.55931 17.180023,-7.64203 5.55112,-4.67848 9.63243,-10.88485 12.5852,-17.57718 1.46388,-0.55037 2.5957,-0.47518 3.51312,0.0825 0.91742,0.55771 1.61502,1.59399 2.16729,2.88696 z"
       id="path3757"
       transform="matrix(0.8,0,0,-0.8,0,356)"
       inkscape:path-effect="#path-effect3891"
       inkscape:original-d="m 119.22967,399.18761 c -16.447,38.3659 -54.763588,34.11577 -57.55915,9.39742"
       sodipodi:nodetypes="cc" /><path
       style="color:#000000;fill:#ffffff;fill-opacity:1;stroke:#000000;stroke-width:1.20000005;stroke-linecap:butt;stroke-linejoin:miter;stroke-miterlimit:4;stroke-opacity:1;stroke-dasharray:none;stroke-dashoffset:0;marker:none;visibility:visible;display:inline;overflow:visible;enable-background:accumulate"
       d="m 413.74081,55.974753 c -1.0582,1.783882 -0.64592,3.493645 0.52702,4.560626 1.17294,1.066981 3.10787,1.490697 5.08931,0.648654 2.97218,-1.263072 3.78208,-3.418638 3.39301,-5.239209 -0.38907,-1.820571 -1.97865,-3.292929 -3.74329,-3.164366 m -3.80298,6.68542 C 411.28728,49.022108 407.1018,38.76096 401.47901,29.255093 396.08838,20.180881 389.25167,11.689369 380.02305,6.3047254 c 9.70932,4.4615356 17.6681,12.4356626 24.06342,21.2328056 6.70999,9.200653 12.06716,19.335372 17.0389,29.512301 -1.14207,2.740149 -3.3772,2.932692 -5.92149,2.416046 z"
       id="path3759"
       inkscape:path-effect="#path-effect3882"
       inkscape:original-d="M 419.59446,61.083182 C 409.50566,37.34289 398.48544,15.669201 380.12533,6.1083164"
       sodipodi:nodetypes="cc" /><path
       style="color:#000000;fill:#ffffff;fill-opacity:1;stroke:#000000;stroke-width:1.20000005;stroke-linecap:butt;stroke-linejoin:miter;stroke-miterlimit:4;stroke-opacity:1;stroke-dasharray:none;stroke-dashoffset:0;marker:none;visibility:visible;display:inline;overflow:visible;enable-background:accumulate"
       d="m 417.90429,138.02332 c 1.9406,-1.18279 2.64652,-3.27256 2.3508,-5.17016 -0.29572,-1.8976 -1.58883,-3.62061 -3.6972,-4.05641 -3.16257,-0.65371 -5.14364,1.09144 -5.93955,3.27079 -0.79591,2.17936 -0.40412,4.76561 1.0962,5.8051 m 7.13436,-4.5141 c -3.16696,13.45965 -5.82729,27.40105 -11.06007,40.54247 0,0 0,0 0,0 -2.57786,6.48543 -5.90524,12.78569 -10.46723,18.10241 -10e-6,1e-5 -10e-6,1e-5 -10e-6,1e-5 -4.50598,5.24125 -10.27781,9.30283 -16.64174,11.65518 6.16451,-2.8344 11.48188,-7.26774 15.41753,-12.63014 0,0 1e-5,0 1e-5,-1e-5 4.0082,-5.45356 6.6962,-11.7376 8.71914,-18.186 0,0 0,0 0,0 4.1227,-13.15911 5.60856,-26.96293 7.78543,-40.86311 2.59178,-2.13433 4.5093,-0.85104 6.24694,1.37919 z"
       id="path3761"
       inkscape:path-effect="#path-effect3873"
       inkscape:original-d="m 416.30537,128.74455 c -6.24778,30.22607 -9.06062,63.68502 -35.71017,74.70943"
       sodipodi:nodetypes="cc" /><path
       style="color:#000000;fill:#ffffff;fill-opacity:1;stroke:#000000;stroke-width:1.20000005;stroke-linecap:butt;stroke-linejoin:miter;stroke-miterlimit:4;stroke-opacity:1;stroke-dasharray:none;stroke-dashoffset:0;marker:none;visibility:visible;display:inline;overflow:visible;enable-background:accumulate"
       d="m 468.36371,86.429753 c -1.62656,1.051795 -1.89184,2.354711 -1.24274,3.473337 0.64911,1.118626 2.2204,2.091738 4.37149,2.180879 1.61333,0.06686 2.83209,-0.23652 3.69148,-0.779633 0.8594,-0.543114 1.35688,-1.321395 1.53082,-2.139368 0.17395,-0.817973 0.024,-1.672102 -0.38564,-2.363071 -0.40963,-0.69097 -1.07706,-1.216625 -1.92403,-1.416721 m -6.00236,4.038984 c 0.50576,-8.803533 -1.09806,-17.85951 -4.80364,-26.139403 -3.55483,-7.978815 -8.7904,-15.39487 -13.17976,-23.226514 5.26637,7.271231 11.2651,13.940549 15.94928,21.784753 4.91593,8.263863 7.84289,17.809353 8.42123,27.66046 -1.06169,0.902175 -2.13683,1.161586 -3.20006,1.061251 -1.06322,-0.100335 -2.12028,-0.560291 -3.18705,-1.140547 z"
       id="path3763"
       inkscape:path-effect="#path-effect3864"
       inkscape:original-d="M 471.7501,92.094645 C 472.76764,67.540008 460.24398,55.022 450.60593,39.939005"
       sodipodi:nodetypes="cc" /><path
       style="color:#000000;fill:#ffffff;fill-opacity:1;stroke:#000000;stroke-width:1.20000005;stroke-linecap:butt;stroke-linejoin:miter;stroke-miterlimit:4;stroke-opacity:1;stroke-dasharray:none;stroke-dashoffset:0;marker:none;visibility:visible;display:inline;overflow:visible;enable-background:accumulate"
       d="m 467.34964,132.94918 c 1.71781,-1.47128 2.00566,-3.73412 1.27405,-5.52839 -0.7316,-1.79427 -2.45736,-3.08548 -4.60426,-2.92438 -1.61018,0.12083 -2.77271,0.69624 -3.57311,1.48063 -0.8004,0.7844 -1.24033,1.78201 -1.39317,2.8043 -0.15284,1.02229 -0.0188,2.07218 0.35391,2.96558 0.37272,0.89339 0.98543,1.6326 1.80819,1.9993 m 6.15443,-5.51134 c -0.0791,13.52836 -3.16931,27.04751 -9.79126,38.67383 -6.68785,11.66057 -16.41811,21.03459 -27.03981,28.73136 9.96089,-8.53479 18.7723,-18.58015 24.19949,-30.20889 5.43274,-11.57125 7.18658,-24.52212 6.23174,-37.13057 1.02653,-1.2174 2.0624,-1.68612 3.13306,-1.61971 1.07067,0.0664 2.1703,0.66806 3.26678,1.55398 z"
       id="path3765"
       inkscape:path-effect="#path-effect3855"
       inkscape:original-d="m 463.7623,124.51571 c 2.47265,32.95058 -12.13617,54.21383 -33.36081,70.95047"
       sodipodi:nodetypes="cc" /><path
       style="color:#000000;fill:#ffffff;fill-opacity:1;stroke:#000000;stroke-width:1.20000005;stroke-linecap:butt;stroke-linejoin:miter;stroke-miterlimit:4;stroke-opacity:1;stroke-dasharray:none;stroke-dashoffset:0;marker:none;visibility:visible;display:inline;overflow:visible;enable-background:accumulate"
       d="m 521.08843,104.62658 c -0.86495,1.86579 -0.39166,3.40761 0.78528,4.37289 0.58846,0.48263 1.35686,0.8205 2.23097,0.94632 0.87411,0.12581 1.8554,0.0398 2.85155,-0.3682 1.49422,-0.61205 2.44366,-1.47675 2.93756,-2.4615 0.49389,-0.98474 0.53073,-2.08221 0.24167,-3.08087 -0.28906,-0.99867 -0.90255,-1.89373 -1.66543,-2.48668 -0.76287,-0.59295 -1.67075,-0.88232 -2.54962,-0.73016 m -3.14443,7.09579 c -1.25946,-2.96553 -2.81319,-5.81875 -4.64897,-8.495356 -2.07514,-3.016092 -4.49744,-6.070948 -6.53337,-9.54702 0,-10e-7 0,-10e-7 0,-2e-6 -2.89363,-4.999591 -4.78131,-10.373491 -6.1716,-15.76214 0,-10e-7 0,-2e-6 0,-2e-6 -2.55256,-9.865821 -3.78757,-19.904325 -4.75912,-29.910172 1.90135,9.871614 4.06634,19.727031 7.45195,29.078536 1.84466,5.084329 4.09528,9.993171 7.14184,14.240754 0,1e-6 0,2e-6 0,3e-6 2.08658,2.935067 4.68109,5.618954 7.18353,8.621403 2.33963,2.810189 4.39715,5.866266 6.14203,9.107576 -0.47086,1.47461 -1.31055,2.22888 -2.32386,2.57216 -1.01331,0.34327 -2.20941,0.27968 -3.48243,0.0943 z"
       id="path3767"
       inkscape:path-effect="#path-effect3846"
       inkscape:original-d="M 527.19484,109.47985 C 518.41177,88.037275 508.50395,96.962943 500.88209,44.167837"
       sodipodi:nodetypes="cc" /><path
       style="color:#000000;fill:#ffffff;fill-opacity:1;stroke:#000000;stroke-width:1.20000005;stroke-linecap:butt;stroke-linejoin:miter;stroke-miterlimit:4;stroke-opacity:1;stroke-dasharray:none;stroke-dashoffset:0;marker:none;visibility:visible;display:inline;overflow:visible;enable-background:accumulate"
       d="m 510.85949,144.42671 c 1.7316,0.9885 3.04876,0.72921 3.9682,-0.24892 0.45972,-0.48907 0.82623,-1.1664 1.04983,-1.99035 0.22361,-0.82395 0.30639,-1.79819 0.0918,-2.85306 -0.32186,-1.58231 -0.99603,-2.67753 -1.91563,-3.30998 -0.9196,-0.63245 -2.06544,-0.79804 -3.14296,-0.5993 -1.07752,0.19873 -2.07612,0.75851 -2.74527,1.49292 -0.66915,0.73441 -1.00863,1.63606 -0.88913,2.51931 m 6.65458,3.69592 c -3.5916,1.04025 -7.06834,3.14652 -10.20955,5.7241 -4.31152,3.57205 -8.03777,8.06478 -11.69877,12.69159 -3.77238,4.7831 -7.42819,9.77699 -11.5005,14.44772 0,0 0,0 0,0 -3.7436,4.30714 -7.9171,8.41225 -12.88347,11.19963 4.67743,-3.24967 8.32301,-7.6437 11.60133,-12.21495 3.55224,-4.96302 6.66675,-10.22096 10.00628,-15.41288 3.21588,-5.01475 6.64103,-10.04257 10.99732,-14.47649 3.24159,-3.31742 7.15972,-6.20172 11.71016,-8.00174 1.43321,0.62486 2.03988,1.57774 2.23693,2.62456 0.19705,1.04682 -0.004,2.20582 -0.25973,3.41846 z"
       id="path3769"
       inkscape:path-effect="#path-effect3837"
       inkscape:original-d="m 515.91794,139.0817 c -21.48819,4.371 -30.26588,36.59468 -48.39667,47.92681"
       sodipodi:nodetypes="cc" /><path
       style="color:#000000;fill:#ffffff;fill-opacity:1;stroke:#000000;stroke-width:1.20000005;stroke-linecap:butt;stroke-linejoin:miter;stroke-miterlimit:4;stroke-opacity:1;stroke-dasharray:none;stroke-dashoffset:0;marker:none;visibility:visible;display:inline;overflow:visible;enable-background:accumulate"
       d="m 565.33086,137.16506 c -1.91468,-0.14254 -2.8737,0.61945 -3.094,1.89752 -0.2203,1.27807 0.31032,3.07829 1.88872,4.54247 1.1838,1.09814 2.31909,1.64922 3.35009,1.76736 1.03101,0.11815 1.95431,-0.20001 2.65724,-0.78651 0.70293,-0.58651 1.18036,-1.43933 1.32523,-2.31412 0.14488,-0.87478 -0.0458,-1.76074 -0.60491,-2.43891 m -7.32023,-0.32202 c 0.95792,-1.03303 1.82959,-2.09448 2.56354,-3.21543 0.89334,-1.36674 1.61248,-2.80161 1.97683,-4.28007 0,-1e-5 0,-1e-5 0,-1e-5 0.35101,-1.3344 0.42666,-2.80471 0.2968,-4.29924 -0.14392,-1.6589 -0.56912,-3.37573 -1.09399,-5.13058 -1.39076,-4.60076 -3.34631,-9.18191 -4.98666,-13.93849 -2.33563,-6.77476 -4.12422,-13.71616 -5.23942,-20.734475 1.88449,6.852168 4.40944,13.481535 7.42622,19.844215 2.10782,4.44361 4.55361,8.76908 6.56806,13.44649 0,0 0,0 0,0 0.78256,1.8099 1.48175,3.72836 1.91929,5.7955 0.40105,1.90583 0.51988,3.91909 0.25416,5.95678 0,0 0,0 0,0 -0.31007,2.22808 -1.04218,4.34277 -2.03341,6.26224 -0.81081,1.5758 -1.75593,3.04712 -2.77237,4.42755 -1.43731,0.0728 -2.43457,-0.42294 -3.18164,-1.18851 -0.74707,-0.76556 -1.24648,-1.81521 -1.69741,-2.94597 z"
       id="path3771"
       inkscape:path-effect="#path-effect3828"
       inkscape:original-d="m 564.31462,143.78041 c 15.73277,-16.96002 0.0695,-22.95934 -7.04807,-55.914604"
       sodipodi:nodetypes="cc" /><path
       style="color:#000000;fill:#ffffff;fill-opacity:1;stroke:#000000;stroke-width:1.20000005;stroke-linecap:butt;stroke-linejoin:miter;stroke-miterlimit:4;stroke-opacity:1;stroke-dasharray:none;stroke-dashoffset:0;marker:none;visibility:visible;display:inline;overflow:visible;enable-background:accumulate"
       d="m 548.75098,168.17369 c 1.95509,0.0728 2.97756,-1.00447 3.02043,-2.35245 0.0429,-1.34797 -0.88632,-2.96048 -2.74046,-4.0547 -2.78123,-1.64133 -4.80543,-1.33803 -5.83912,-0.34149 -1.03369,0.99653 -1.09304,2.70632 0.0641,3.9915 m 7.15985,0.16691 c -3.84634,5.58118 -8.12639,11.06908 -13.35054,15.6202 0,0 0,0 0,0 -3.30993,2.89817 -7.18946,5.29247 -11.47208,6.48831 -10e-6,0 -10e-6,0 -10e-6,0 -3.21368,0.86897 -6.38591,1.0131 -9.44651,1.358 -3.29327,0.37665 -6.56435,1.2228 -9.50753,2.84429 2.7199,-1.97384 5.94794,-3.27379 9.28926,-4.07649 3.05128,-0.7377 6.14874,-1.2578 8.89632,-2.40015 0,0 0,0 0,0 3.68131,-1.50297 6.81449,-4.08327 9.49199,-7.03243 0,0 0,-1e-5 0,-1e-5 4.3241,-4.77282 7.61918,-10.3784 10.67474,-16.20187 2.65348,-0.25818 4.21961,1.26771 5.42436,3.40015 z"
       id="path3773"
       inkscape:path-effect="#path-effect3819"
       inkscape:original-d="m 548.80888,161.63549 c -20.30863,34.41285 -28.71287,21.46932 -42.28834,30.07172"
       sodipodi:nodetypes="cc" /><path
       style="color:#000000;fill:#ffffff;fill-opacity:1;stroke:#000000;stroke-width:1.20000005;stroke-linecap:butt;stroke-linejoin:miter;stroke-miterlimit:4;stroke-opacity:1;stroke-dasharray:none;stroke-dashoffset:0;marker:none;visibility:visible;display:inline;overflow:visible;enable-background:accumulate"
       d="m 618.00891,172.09015 c -0.33892,0.20487 -0.63495,0.42405 -0.89217,0.65284 -1.2528,1.09057 -1.55363,2.34615 -1.26348,3.66491 0.14507,0.65939 0.43462,1.3465 0.87653,2.02473 0.44191,0.67824 1.03765,1.35343 1.86991,1.86304 1.06212,0.65035 2.08353,0.90878 3.04168,0.77201 0.95815,-0.13677 1.84168,-0.66339 2.53895,-1.42799 0.69727,-0.76459 1.20169,-1.76013 1.45461,-2.77724 0.25293,-1.01712 0.25562,-2.05133 0.0417,-2.92517 -0.25081,-1.02488 -0.78196,-1.82909 -1.51402,-2.23872 m -6.98476,4.17763 c 0.35125,-0.94541 0.62151,-1.96048 0.82828,-3.00911 0.47712,-2.48644 0.5145,-5.16272 0.37564,-7.91221 0,0 0,0 0,-1e-5 -0.34913,-6.6853 -1.82594,-13.46149 -3.25511,-20.32496 -1.59041,-7.59182 -3.25651,-15.25887 -4.17296,-23.04556 -0.8879,-7.48048 -1.08123,-15.17072 0.60028,-22.482667 -1.0892,7.423617 -0.26501,14.920147 1.1858,22.200477 1.51408,7.57308 3.76609,14.96886 5.9651,22.42767 0,0 0,0 0,0 1.98474,6.70355 4.04451,13.51348 5.03702,20.70712 0,0 0,0 0,0 0.41414,2.97762 0.60564,6.08471 0.29073,9.27097 -0.13687,1.42519 -0.40333,2.86876 -0.82818,4.29597 -0.73338,0.51089 -1.40309,0.73936 -1.99427,0.77704 -0.59117,0.0377 -1.10622,-0.11448 -1.5704,-0.38001 -0.92838,-0.53107 -1.66925,-1.49989 -2.46193,-2.52472 z"
       id="path3775"
       inkscape:path-effect="#path-effect3810"
       inkscape:original-d="m 618.81961,180.43032 c 10.1919,-16.64483 -12.36895,-53.06569 -7.04806,-81.287619"
       sodipodi:nodetypes="cc" /><path
       style="color:#000000;fill:#ffffff;fill-opacity:1;stroke:#000000;stroke-width:1.20000005;stroke-linecap:butt;stroke-linejoin:miter;stroke-miterlimit:4;stroke-opacity:1;stroke-dasharray:none;stroke-dashoffset:0;marker:none;visibility:visible;display:inline;overflow:visible;enable-background:accumulate"
       d="m 604.93614,209.01792 c 1.99509,0.58168 3.58189,-0.3262 4.2529,-1.77076 0.671,-1.44457 0.42873,-3.40409 -1.00476,-5.0104 -2.15025,-2.40948 -4.35815,-2.57018 -5.859,-1.78218 -1.50086,0.78801 -2.34136,2.55465 -1.75516,4.21065 m 7.32038,2.00221 c -5.89361,4.53632 -12.36879,8.55131 -19.50373,11.02695 -5.26259,1.80452 -10.7829,2.52232 -16.20383,2.30172 0,0 0,0 0,0 -4.32984,-0.17668 -8.45496,-0.88721 -12.55948,-0.87293 0,0 0,0 -10e-6,0 -1.97745,0.006 -3.95624,0.19644 -5.87448,0.67709 -2.17151,0.54135 -4.27068,1.4556 -6.22599,2.6322 1.82501,-1.37006 3.84393,-2.5128 6.02138,-3.30138 1.92436,-0.69636 3.95715,-1.11027 6.00786,-1.32412 0,0 0,0 0,0 4.2331,-0.44121 8.5023,-0.1582 12.60883,-0.40766 5.11853,-0.31149 10.13802,-1.49998 14.67333,-3.60087 6.31885,-2.89519 11.85776,-7.24649 17.00061,-12.08947 1.42167,0.19431 2.37,0.77845 2.99597,1.64754 0.62597,0.86909 0.92915,2.02031 1.05954,3.31093 z"
       id="path3777"
       inkscape:path-effect="#path-effect3779"
       inkscape:original-d="m 608.01259,202.04437 c -31.76411,28.34673 -43.61121,8.7529 -60.61332,20.20443"
       sodipodi:nodetypes="cc" /></g></svg>